<svg width="40" height="40" viewBox="0 0 40 40" fill="none" xmlns="http://www.w3.org/2000/svg">
<rect width="40" height="40" rx="20" fill="#DCFCE7"/>
<path d="M28.1675 18.3336C28.548 20.2013 28.2768 22.1431 27.399 23.8351C26.5212 25.527 25.0899 26.8669 23.3437 27.6313C21.5976 28.3957 19.6421 28.5384 17.8035 28.0355C15.9649 27.5327 14.3543 26.4147 13.2402 24.8681C12.1261 23.3214 11.5759 21.4396 11.6813 19.5364C11.7868 17.6332 12.5415 15.8236 13.8197 14.4095C15.0978 12.9954 16.8221 12.0623 18.705 11.7656C20.5879 11.469 22.5156 11.8268 24.1666 12.7794" stroke="#00A63E" stroke-width="1.66667" stroke-linecap="round" stroke-linejoin="round"/>
<path d="M17.5 19.1668L20 21.6668L28.3333 13.3335" stroke="#00A63E" stroke-width="1.66667" stroke-linecap="round" stroke-linejoin="round"/>
</svg>
